<?xml version="1.0" encoding="UTF-8" standalone="no"?>
<!-- Created with Inkscape (http://www.inkscape.org/) -->

<svg
   xmlns:dc="http://purl.org/dc/elements/1.1/"
   xmlns:cc="http://creativecommons.org/ns#"
   xmlns:rdf="http://www.w3.org/1999/02/22-rdf-syntax-ns#"
   xmlns:svg="http://www.w3.org/2000/svg"
   xmlns="http://www.w3.org/2000/svg"
   version="1.1"
   width="256"
   height="256"
   id="svg2">
  <defs
     id="defs4" />
  <metadata
     id="metadata7">
    <rdf:RDF>
      <cc:Work
         rdf:about="">
        <dc:format>image/svg+xml</dc:format>
        <dc:type
           rdf:resource="http://purl.org/dc/dcmitype/StillImage" />
        <dc:title></dc:title>
      </cc:Work>
    </rdf:RDF>
  </metadata>
  <g
     transform="translate(0,-796.36215)"
     id="layer1">
    <path
       d="m 241,878.86215 -153.5,0 20.61286,-7 97.80143,0 z"
       id="path3860"
       style="fill:#ffffff;stroke:none" />
    <path
       d="m 133,42 -35.96875,69.9375 -7,-9 -36.5,65.03125 -16.03125,4 L 0,256 81.25,256 160.5,229.71875 59.25,201.75 l 96.25,-26.28125 -63,-21.5 L 145.84375,137.875 126,130 148.8125,138.125 99.5,154.25 167.5,176.3125 70.8125,201.65625 179,230 l -78.5,26 155.5,0 -52.9375,-98.53125 -11,18.5 L 133,42 z"
       transform="translate(0,796.36215)"
       id="path3006"
       style="fill:#ffffff;stroke:none" />
    <path
       d="m 19.5,866.86215 175,0 -23.5,-7 -111.5,0 z"
       id="path3858"
       style="fill:#ffffff;stroke:none" />
    <path
       d="m 164.2729,849.86215 -60.2729,0 21.46507,-7 16.20657,0 z"
       id="path3862"
       style="fill:#ffffff;stroke:none" />
  </g>
</svg>
