<?xml version="1.0" encoding="UTF-8" standalone="no"?>
<!-- Created with Inkscape (http://www.inkscape.org/) -->

<svg
   xmlns:dc="http://purl.org/dc/elements/1.1/"
   xmlns:cc="http://creativecommons.org/ns#"
   xmlns:rdf="http://www.w3.org/1999/02/22-rdf-syntax-ns#"
   xmlns:svg="http://www.w3.org/2000/svg"
   xmlns="http://www.w3.org/2000/svg"
   xmlns:sodipodi="http://sodipodi.sourceforge.net/DTD/sodipodi-0.dtd"
   xmlns:inkscape="http://www.inkscape.org/namespaces/inkscape"
   version="1.1"
   viewBox="0 0 129.34987 50.543999"
   id="svg3046"
   inkscape:version="0.48.5 r10040"
   width="100%"
   height="100%"
   sodipodi:docname="kopa_logo.svg">
  <metadata
     id="metadata3058">
    <rdf:RDF>
      <cc:Work
         rdf:about="">
        <dc:format>image/svg+xml</dc:format>
        <dc:type
           rdf:resource="http://purl.org/dc/dcmitype/StillImage" />
      </cc:Work>
    </rdf:RDF>
  </metadata>
  <defs
     id="defs3056" />
  <sodipodi:namedview
     pagecolor="#ffffff"
     bordercolor="#666666"
     borderopacity="1"
     objecttolerance="10"
     gridtolerance="10"
     guidetolerance="10"
     inkscape:pageopacity="0"
     inkscape:pageshadow="2"
     inkscape:window-width="1680"
     inkscape:window-height="1050"
     id="namedview3054"
     showgrid="false"
     inkscape:zoom="11.658303"
     inkscape:cx="63.173859"
     inkscape:cy="25.271999"
     inkscape:window-x="0"
     inkscape:window-y="0"
     inkscape:window-maximized="1"
     inkscape:current-layer="kopa" />
  <g
     transform="translate(-323.8965,-418.51876)"
     id="kopa">
    <g
       id="text5388"
       style="font-style:normal;font-variant:normal;font-weight:normal;font-stretch:normal;opacity:0.90000000000000002;fill:#ff9e34;font-family:Montserrat;-inkscape-font-specification:Montserrat;fill-opacity:1">
      <path
         d="m 331.9965,458.58676 -8.1,0 0,-40.068 8.1,0 0,20.574 9.018,-9.612 10.206,0 -11.07,11.772 11.502,17.334 -9.612,0 -7.398,-11.124 -2.646,2.754 0,8.37"
         id="k"
         style="fill:#ff9e34;fill-opacity:1" />
      <path
         d="m 362.06791,444.06076 c -10e-6,2.37601 0.66599,4.32001 1.998,5.832 1.36798,1.47601 3.09598,2.21401 5.184,2.214 2.12398,10e-6 3.85197,-0.73799 5.184,-2.214 1.36797,-1.51199 2.05197,-3.45599 2.052,-5.832 -3e-5,-2.37598 -0.68403,-4.31998 -2.052,-5.832 -1.33203,-1.51198 -3.06002,-2.26798 -5.184,-2.268 -2.08802,2e-5 -3.81602,0.75602 -5.184,2.268 -1.33201,1.51202 -1.99801,3.45602 -1.998,5.832 m 22.572,0 c -4e-5,4.21201 -1.45804,7.75801 -4.374,10.638 -2.91603,2.88 -6.58803,4.32 -11.016,4.32 -4.39202,0 -8.04601,-1.44 -10.962,-4.32 -2.91601,-2.87999 -4.37401,-6.42599 -4.374,-10.638 -10e-6,-4.21198 1.45799,-7.75798 4.374,-10.638 2.91599,-2.91597 6.56998,-4.37397 10.962,-4.374 4.42797,3e-5 8.09997,1.45803 11.016,4.374 2.91596,2.88002 4.37396,6.42602 4.374,10.638"
         id="o"
         style="fill:#ff9e34;fill-opacity:1" />
      <path
         d="m 408.50553,429.04876 c 3.38398,3e-5 6.38997,1.42203 9.018,4.266 2.66397,2.80802 3.99597,6.35402 3.996,10.638 -3e-5,4.28401 -1.33203,7.86601 -3.996,10.746 -2.62803,2.88 -5.72402,4.32 -9.288,4.32 -3.52802,0 -6.37201,-1.422 -8.532,-4.266 l 0,14.31 -8.1,0 0,-39.528 8.1,0 0,3.24 c 2.48399,-2.48397 5.41798,-3.72597 8.802,-3.726 m -8.91,15.066 c -10e-6,2.34001 0.64799,4.26601 1.944,5.778 1.33199,1.47601 2.93398,2.21401 4.806,2.214 1.87198,10e-6 3.50998,-0.73799 4.914,-2.214 1.40398,-1.51199 2.10598,-3.43799 2.106,-5.778 -2e-5,-2.33998 -0.68402,-4.30198 -2.052,-5.886 -1.36802,-1.58398 -3.00602,-2.37598 -4.914,-2.376 -1.90802,2e-5 -3.52801,0.79202 -4.86,2.376 -1.29601,1.54802 -1.94401,3.51002 -1.944,5.886"
         id="p"
         style="fill:#ff9e34;fill-opacity:1" />
      <path
         d="m 453.24637,458.58676 -7.61399,0 0,-3.51 c -2.08802,2.628 -4.68002,3.942 -7.776,3.942 -3.06002,0 -5.63401,-0.882 -7.72201,-2.646 -2.088,-1.79999 -3.132,-4.17599 -3.132,-7.128 0,-2.98799 1.08,-5.21998 3.24,-6.696 2.16,-1.47598 5.11199,-2.21398 8.856,-2.214 l 6.048,0 0,-0.162 c -2e-5,-3.09598 -1.63801,-4.64398 -4.914,-4.644 -1.40401,2e-5 -2.89801,0.28802 -4.48199,0.864 -1.54801,0.54002 -2.86201,1.22402 -3.94201,2.052 l -3.61799,-5.238 c 3.81599,-2.77197 8.17198,-4.15797 13.06799,-4.158 3.52798,3e-5 6.40798,0.88203 8.64,2.646 2.23198,1.76403 3.34798,4.55402 3.348,8.37 l 0,18.522 m -8.154,-11.07 0,-1.404 -5.076,0 c -3.24001,1e-5 -4.86001,1.00801 -4.85999,3.024 -2e-5,1.04401 0.37798,1.85401 1.13399,2.43 0.79199,0.54001 1.90799,0.81001 3.348,0.81 1.43999,1e-5 2.69999,-0.43199 3.78001,-1.296 1.11598,-0.89999 1.67397,-2.08799 1.67399,-3.564"
         id="a"
         style="fill:#ff9e34;fill-opacity:1" />
    </g>
  </g>
</svg>
