<?xml version="1.0" encoding="UTF-8" standalone="no"?>
<!-- Created with Inkscape (http://www.inkscape.org/) -->

<svg
   xmlns:dc="http://purl.org/dc/elements/1.1/"
   xmlns:cc="http://creativecommons.org/ns#"
   xmlns:rdf="http://www.w3.org/1999/02/22-rdf-syntax-ns#"
   xmlns:svg="http://www.w3.org/2000/svg"
   xmlns="http://www.w3.org/2000/svg"
   xmlns:sodipodi="http://sodipodi.sourceforge.net/DTD/sodipodi-0.dtd"
   xmlns:inkscape="http://www.inkscape.org/namespaces/inkscape"
   width="256"
   height="256"
   id="svg2"
   version="1.1"
   inkscape:version="0.48.5 r10040"
   sodipodi:docname="kopa_logo.svg">
  <defs
     id="defs4" />
  <sodipodi:namedview
     id="base"
     pagecolor="#ffffff"
     bordercolor="#666666"
     borderopacity="1.0"
     inkscape:pageopacity="0.0"
     inkscape:pageshadow="2"
     inkscape:zoom="1.4142136"
     inkscape:cx="141.78879"
     inkscape:cy="98.190565"
     inkscape:document-units="px"
     inkscape:current-layer="layer1"
     showgrid="false"
     inkscape:window-width="1680"
     inkscape:window-height="1011"
     inkscape:window-x="0"
     inkscape:window-y="0"
     inkscape:window-maximized="1"
     inkscape:object-paths="true"
     inkscape:snap-global="false"
     inkscape:snap-nodes="true"
     inkscape:snap-grids="true"
     inkscape:snap-to-guides="true">
    <inkscape:grid
       type="xygrid"
       id="grid2985"
       empspacing="5"
       visible="true"
       enabled="true"
       snapvisiblegridlinesonly="true"
       spacingx="32px"
       spacingy="32px" />
  </sodipodi:namedview>
  <metadata
     id="metadata7">
    <rdf:RDF>
      <cc:Work
         rdf:about="">
        <dc:format>image/svg+xml</dc:format>
        <dc:type
           rdf:resource="http://purl.org/dc/dcmitype/StillImage" />
        <dc:title></dc:title>
      </cc:Work>
    </rdf:RDF>
  </metadata>
  <g
     inkscape:label="Ebene 1"
     inkscape:groupmode="layer"
     id="layer1"
     transform="translate(0,-796.36215)">
    <path
       inkscape:connector-curvature="0"
       id="path3860"
       d="m 241,878.86215 -153.5,0 20.61286,-7 97.80143,0 z"
       style="fill:#3771c8;stroke:none" />
    <path
       style="fill:#e3dbdb;stroke:none;stroke-width:1px;stroke-linecap:butt;stroke-linejoin:miter;stroke-opacity:1"
       d="m 0,256 37.513589,-84.03044 16.005798,-4.00145 36.513226,-65.02355 7.002538,9.00325 35.966659,-69.944186 59.06777,133.967386 11.00398,-18.5067 L 256,256 z"
       id="path3006"
       inkscape:connector-curvature="0"
       transform="translate(0,796.36215)"
       sodipodi:nodetypes="cccccccccc" />
    <path
       style="fill:#c8beb7;stroke:none"
       d="M 197.63635,212.86649 190.56528,193.0675 183.14066,210.39161 179,233 l -2.93041,23 47.72971,0 -8.48528,-18.03122 z"
       id="path3854"
       inkscape:connector-curvature="0"
       sodipodi:nodetypes="cccccccc"
       transform="translate(0,796.36215)" />
    <path
       style="fill:#c8beb7;stroke:none"
       d="M 203.14919,157.60511 206,191.5 192.06958,175.97101 z"
       id="path3842"
       inkscape:connector-curvature="0"
       transform="translate(0,796.36215)"
       sodipodi:nodetypes="cccc" />
    <path
       style="fill:#c8beb7;stroke:none"
       d="M 132.92813,42.146901 123.38705,98.956444 105.18224,126.1028 97.035151,111.94781 z"
       id="path3844"
       inkscape:connector-curvature="0"
       transform="translate(0,796.36215)"
       sodipodi:nodetypes="ccccc" />
    <path
       style="fill:#c8beb7;stroke:none"
       d="m 89.91852,103.14774 -1.979268,19.12329 -22.463515,56.33736 -12.085454,-10.608 z"
       id="path3846"
       inkscape:connector-curvature="0"
       transform="translate(0,796.36215)"
       sodipodi:nodetypes="ccccc" />
    <path
       style="fill:#c8beb7;stroke:none"
       d="m 37.507592,171.98299 3.875586,14.27869 11.303738,28.16355 L 58.25,235.5 79.641365,256 0,256 z"
       id="path3848"
       inkscape:connector-curvature="0"
       transform="translate(0,796.36215)"
       sodipodi:nodetypes="ccccccc" />
    <path
       style="fill:#501616;stroke:none"
       d="M 100.5,1052.3622 179,1026.3621 70.824787,998.03018 167.5,972.6665 l -68,-22.04348 49.32249,-16.12561 -22.82431,-8.11968 19.84255,7.85266 -53.34073,16.11002 63,21.47826 -96.25,26.28261 101.25,27.97822 -79.25,26.2827 z"
       id="path3840"
       inkscape:connector-curvature="0"
       sodipodi:nodetypes="cccccccccccccc" />
    <path
       style="fill:#3771c8;stroke:none"
       d="m 19.5,866.86215 175,0 -23.5,-7 -111.5,0 z"
       id="path3858"
       inkscape:connector-curvature="0" />
    <path
       inkscape:connector-curvature="0"
       id="path3862"
       d="m 164.2729,849.86215 -60.2729,0 21.46507,-7 16.20657,0 z"
       style="fill:#3771c8;stroke:none"
       sodipodi:nodetypes="ccccc" />
  </g>
</svg>
