<?xml version="1.0" encoding="UTF-8" standalone="no"?>
<!-- Created with Inkscape (http://www.inkscape.org/) -->

<svg
   xmlns:dc="http://purl.org/dc/elements/1.1/"
   xmlns:cc="http://creativecommons.org/ns#"
   xmlns:rdf="http://www.w3.org/1999/02/22-rdf-syntax-ns#"
   xmlns:svg="http://www.w3.org/2000/svg"
   xmlns="http://www.w3.org/2000/svg"
   version="1.1"
   width="256"
   height="256"
   id="svg2">
  <defs
     id="defs4" />
  <metadata
     id="metadata7">
    <rdf:RDF>
      <cc:Work
         rdf:about="">
        <dc:format>image/svg+xml</dc:format>
        <dc:type
           rdf:resource="http://purl.org/dc/dcmitype/StillImage" />
        <dc:title></dc:title>
      </cc:Work>
    </rdf:RDF>
  </metadata>
  <g
     transform="translate(0,-796.36215)"
     id="layer1">
    <path
       d="m 241,878.86215 -153.5,0 20.61286,-7 97.80143,0 z"
       id="path3860"
       style="fill:#ffffff;stroke:none" />
    <path
       d="m 0,256 37.513589,-84.03044 16.005798,-4.00145 36.513226,-65.02355 7.002538,9.00325 35.966659,-69.944186 59.06777,133.967386 11.00398,-18.5067 L 256,256 z"
       transform="translate(0,796.36215)"
       id="path3006"
       style="fill:#ffffff;stroke:none" />
    <path
       d="M 100.5,1052.3622 179,1026.3621 70.824787,998.03018 167.5,972.6665 l -68,-22.04348 49.32249,-16.12561 -22.82431,-8.11968 19.84255,7.85266 -53.34073,16.11002 63,21.47826 -96.25,26.28261 101.25,27.97822 -79.25,26.2827 z"
       id="path3840"
       style="fill:#000000;stroke:none" />
    <path
       d="m 19.5,866.86215 175,0 -23.5,-7 -111.5,0 z"
       id="path3858"
       style="fill:#ffffff;stroke:none" />
    <path
       d="m 164.2729,849.86215 -60.2729,0 21.46507,-7 16.20657,0 z"
       id="path3862"
       style="fill:#ffffff;stroke:none" />
    <path
       d="m 115.78125,75.5 -3.625,7 38.6875,0 -3.0625,-7 -32,0 z"
       transform="translate(0,796.36215)"
       id="path3885"
       style="fill:#000000;stroke:none" />
    <path
       d="m 121.9375,63.5 -3.59375,7 27.21875,0 -3.09375,-7 -20.53125,0 z"
       transform="translate(0,796.36215)"
       id="path3890"
       style="fill:#000000;stroke:none" />
    <path
       d="m 130.6875,46.5 -3.59375,7 10.96875,0 -3.09375,-7 -4.28125,0 z"
       transform="translate(0,796.36215)"
       id="path3895"
       style="fill:#000000;stroke:none" />
  </g>
</svg>
